<svg xmlns="http://www.w3.org/2000/svg" width="128" height="128" viewBox="0 0 128 128" color="#F4F1E9" role="img"><title>APORIA — Passage croisé</title><defs><mask id="crossing-02" maskUnits="userSpaceOnUse" x="0" y="0" width="128" height="128"><rect width="128" height="128" fill="white"/><path d="M42 69 C37 72 31 70 28 62" fill="none" stroke="black" stroke-width="13"/></mask></defs><g fill="none" stroke="currentColor" stroke-width="7" stroke-linecap="butt" stroke-linejoin="round"><path d="M108.184 45.245 A48 48 0 1 1 64.838 16.007"/><g mask="url(#crossing-02)"><path d="M93.875 75.468 A32 32 0 1 1 86.627 41.373"/><path d="M79.5 66 C81 53 67 46 55 51 C44 55 42 73 52 78 C63 85 79 77 78 66 C75 54 60 59 50 65 C40 72 31 70 28 62"/></g><path d="M42 69 C37 72 31 70 28 62"/></g></svg>